<svg aria-hidden="true" width="76" height="20" fill="none" xmlns="http://www.w3.org/2000/svg"><g clip-path="url(#clip0_634_4745)"><path d="M20.124 19.669h-3.956V5.646h3.956v2.377h.16c.25-.73.686-1.362 1.31-1.896.623-.534 1.488-.801 2.593-.801 1.426 0 2.512.485 3.261 1.455.749.971 1.122 2.337 1.122 4.1v8.788h-3.956V11.2c0-.89-.142-1.558-.427-2.003-.286-.445-.793-.668-1.523-.668-.428 0-.834.076-1.217.228-.384.15-.699.378-.949.68-.25.304-.374.686-.374 1.15v9.08zM59.127 19.68v-2.35h-.133c-.232.711-.655 1.334-1.27 1.869-.614.534-1.502.801-2.66.801-1.425 0-2.511-.48-3.26-1.443-.749-.961-1.123-2.323-1.123-4.086V5.657h3.957v8.467c0 .855.155 1.514.467 1.977.312.463.824.694 1.537.694.41 0 .806-.075 1.19-.227a2.2 2.2 0 00.935-.68c.24-.303.36-.677.36-1.122V5.658h3.957V19.68h-3.956zM66.237 19.68V8.729H64.26V5.657h1.978V4.001c0-1.353.447-2.202 1.168-2.887C68.127.429 69.252 0 70.434 0H73v2.986c-1.01 0-2.001-.038-2.546.506-.546.544-.518 1.296-.518 2.165H73V8.73h-2.806v10.95h-3.956zM36.322 20c-1.426 0-2.642-.298-3.648-.894-1.007-.597-1.774-1.446-2.299-2.55-.526-1.104-.788-2.404-.788-3.9s.254-2.764.762-3.86c.507-1.094 1.251-1.944 2.232-2.55.98-.604 2.173-.908 3.581-.908 1.55 0 2.802.334 3.755 1.002a5.872 5.872 0 012.1 2.631c.444 1.087.667 2.262.667 3.526v1.175h-9.008v.214c0 .926.254 1.66.762 2.204.508.543 1.287.814 2.339.814.838 0 1.51-.169 2.018-.507.508-.338.985-.73 1.43-1.175l1.978 2.457c-.624.713-1.44 1.278-2.445 1.697-1.007.418-2.152.627-3.435.627V20zm-.08-11.752c-.534 0-.994.12-1.377.36s-.677.574-.882 1.002c-.205.427-.307.934-.307 1.522v.214h4.918v-.24c0-.57-.084-1.069-.254-1.496a2.143 2.143 0 00-.775-1.002c-.348-.24-.788-.36-1.323-.36z" fill="#fff"></path><path d="M46.456 19.68a2.645 2.645 0 10-2.646-2.644 2.645 2.645 0 002.646 2.644z" fill="#5AB8FF"></path><path d="M14.363 8.755c-.525-1.086-1.278-1.927-2.258-2.524-.98-.596-2.156-.894-3.529-.894-1.373 0-2.549.298-3.529.894-.98.597-1.732 1.438-2.258 2.524C2.263 9.842 2 11.142 2 12.655c0 1.514.263 2.796.789 3.9s1.278 1.954 2.258 2.55c.98.597 2.156.895 3.53.895 1.372 0 2.548-.298 3.528-.895.98-.596 1.733-1.446 2.258-2.55.526-1.104.79-2.404.79-3.9 0-1.495-.264-2.813-.79-3.9zm-3.982 7.385c-.437.49-1.038.735-1.805.735-.767 0-1.368-.245-1.804-.735 0 0-.826-.557-.826-3.472s.826-3.485.826-3.485c.436-.48 1.037-.722 1.804-.722.767 0 1.368.241 1.805.722 0 0 .825.57.825 3.485s-.825 3.472-.825 3.472z" fill="#fff"></path></g><defs><clipPath id="clip0_634_4745"><path fill="#fff" transform="translate(2)" d="M0 0h71v20H0z"></path></clipPath></defs></svg>